runebender-icons.ufo
<glyph name="glyph-grid" format="2">
	<advance width="768"/>
	<unicode hex="E006"/>
	<outline>
		<contour>
			<point x="94.04" y="31.35" type="curve"/>
			<point x="60.73" y="31.35"/>
			<point x="31.35" y="60.73"/>
			<point x="31.35" y="94.04" type="curve"/>
			<point x="31.35" y="129.31"/>
			<point x="60.73" y="156.73"/>
			<point x="94.04" y="156.73" type="curve"/>
			<point x="129.31" y="156.73"/>
			<point x="156.73" y="129.31"/>
			<point x="156.73" y="94.04" type="curve"/>
			<point x="156.73" y="60.73"/>
			<point x="129.31" y="31.35"/>
		</contour>
		<contour>
			<point x="94.04" y="0" type="curve"/>
			<point x="146.94" y="0"/>
			<point x="188.08" y="43.1"/>
			<point x="188.08" y="94.04" type="curve"/>
			<point x="188.08" y="146.94"/>
			<point x="146.94" y="188.08"/>
			<point x="94.04" y="188.08" type="curve"/>
			<point x="43.1" y="188.08"/>
			<point x="0" y="146.94"/>
			<point x="0" y="94.04" type="curve"/>
			<point x="0" y="43.1"/>
			<point x="43.1" y="0"/>
		</contour>
		<contour>
			<point x="94.04" y="321.31" type="curve"/>
			<point x="60.73" y="321.31"/>
			<point x="31.35" y="350.69"/>
			<point x="31.35" y="384" type="curve"/>
			<point x="31.35" y="419.27"/>
			<point x="60.73" y="446.69"/>
			<point x="94.04" y="446.69" type="curve"/>
			<point x="129.31" y="446.69"/>
			<point x="156.73" y="419.27"/>
			<point x="156.73" y="384" type="curve"/>
			<point x="156.73" y="350.69"/>
			<point x="129.31" y="321.31"/>
		</contour>
		<contour>
			<point x="94.04" y="289.96" type="curve"/>
			<point x="146.94" y="289.96"/>
			<point x="188.08" y="333.06"/>
			<point x="188.08" y="384" type="curve"/>
			<point x="188.08" y="436.9"/>
			<point x="146.94" y="478.04"/>
			<point x="94.04" y="478.04" type="curve"/>
			<point x="43.1" y="478.04"/>
			<point x="0" y="436.9"/>
			<point x="0" y="384" type="curve"/>
			<point x="0" y="333.06"/>
			<point x="43.1" y="289.96"/>
		</contour>
		<contour>
			<point x="94.04" y="611.27" type="curve"/>
			<point x="60.73" y="611.27"/>
			<point x="31.35" y="640.65"/>
			<point x="31.35" y="673.96" type="curve"/>
			<point x="31.35" y="709.22"/>
			<point x="60.73" y="736.65"/>
			<point x="94.04" y="736.65" type="curve"/>
			<point x="129.31" y="736.65"/>
			<point x="156.73" y="709.22"/>
			<point x="156.73" y="673.96" type="curve"/>
			<point x="156.73" y="640.65"/>
			<point x="129.31" y="611.27"/>
		</contour>
		<contour>
			<point x="94.04" y="579.92" type="curve"/>
			<point x="146.94" y="579.92"/>
			<point x="188.08" y="623.02"/>
			<point x="188.08" y="673.96" type="curve"/>
			<point x="188.08" y="726.86"/>
			<point x="146.94" y="768"/>
			<point x="94.04" y="768" type="curve"/>
			<point x="43.1" y="768"/>
			<point x="0" y="726.86"/>
			<point x="0" y="673.96" type="curve"/>
			<point x="0" y="623.02"/>
			<point x="43.1" y="579.92"/>
		</contour>
		<contour>
			<point x="384" y="31.35" type="curve"/>
			<point x="350.69" y="31.35"/>
			<point x="321.31" y="60.73"/>
			<point x="321.31" y="94.04" type="curve"/>
			<point x="321.31" y="129.31"/>
			<point x="350.69" y="156.73"/>
			<point x="384" y="156.73" type="curve"/>
			<point x="419.27" y="156.73"/>
			<point x="446.69" y="129.31"/>
			<point x="446.69" y="94.04" type="curve"/>
			<point x="446.69" y="60.73"/>
			<point x="419.27" y="31.35"/>
		</contour>
		<contour>
			<point x="384" y="0" type="curve"/>
			<point x="436.9" y="0"/>
			<point x="478.04" y="43.1"/>
			<point x="478.04" y="94.04" type="curve"/>
			<point x="478.04" y="146.94"/>
			<point x="436.9" y="188.08"/>
			<point x="384" y="188.08" type="curve"/>
			<point x="333.06" y="188.08"/>
			<point x="289.96" y="146.94"/>
			<point x="289.96" y="94.04" type="curve"/>
			<point x="289.96" y="43.1"/>
			<point x="333.06" y="0"/>
		</contour>
		<contour>
			<point x="384" y="321.31" type="curve"/>
			<point x="350.69" y="321.31"/>
			<point x="321.31" y="350.69"/>
			<point x="321.31" y="384" type="curve"/>
			<point x="321.31" y="419.27"/>
			<point x="350.69" y="446.69"/>
			<point x="384" y="446.69" type="curve"/>
			<point x="419.27" y="446.69"/>
			<point x="446.69" y="419.27"/>
			<point x="446.69" y="384" type="curve"/>
			<point x="446.69" y="350.69"/>
			<point x="419.27" y="321.31"/>
		</contour>
		<contour>
			<point x="384" y="289.96" type="curve"/>
			<point x="436.9" y="289.96"/>
			<point x="478.04" y="333.06"/>
			<point x="478.04" y="384" type="curve"/>
			<point x="478.04" y="436.9"/>
			<point x="436.9" y="478.04"/>
			<point x="384" y="478.04" type="curve"/>
			<point x="333.06" y="478.04"/>
			<point x="289.96" y="436.9"/>
			<point x="289.96" y="384" type="curve"/>
			<point x="289.96" y="333.06"/>
			<point x="333.06" y="289.96"/>
		</contour>
		<contour>
			<point x="384" y="611.27" type="curve"/>
			<point x="350.69" y="611.27"/>
			<point x="321.31" y="640.65"/>
			<point x="321.31" y="673.96" type="curve"/>
			<point x="321.31" y="709.22"/>
			<point x="350.69" y="736.65"/>
			<point x="384" y="736.65" type="curve"/>
			<point x="419.27" y="736.65"/>
			<point x="446.69" y="709.22"/>
			<point x="446.69" y="673.96" type="curve"/>
			<point x="446.69" y="640.65"/>
			<point x="419.27" y="611.27"/>
		</contour>
		<contour>
			<point x="384" y="579.92" type="curve"/>
			<point x="436.9" y="579.92"/>
			<point x="478.04" y="623.02"/>
			<point x="478.04" y="673.96" type="curve"/>
			<point x="478.04" y="726.86"/>
			<point x="436.9" y="768"/>
			<point x="384" y="768" type="curve"/>
			<point x="333.06" y="768"/>
			<point x="289.96" y="726.86"/>
			<point x="289.96" y="673.96" type="curve"/>
			<point x="289.96" y="623.02"/>
			<point x="333.06" y="579.92"/>
		</contour>
		<contour>
			<point x="673.96" y="31.35" type="curve"/>
			<point x="640.65" y="31.35"/>
			<point x="611.27" y="60.73"/>
			<point x="611.27" y="94.04" type="curve"/>
			<point x="611.27" y="129.31"/>
			<point x="640.65" y="156.73"/>
			<point x="673.96" y="156.73" type="curve"/>
			<point x="709.22" y="156.73"/>
			<point x="736.65" y="129.31"/>
			<point x="736.65" y="94.04" type="curve"/>
			<point x="736.65" y="60.73"/>
			<point x="709.22" y="31.35"/>
		</contour>
		<contour>
			<point x="673.96" y="0" type="curve"/>
			<point x="726.86" y="0"/>
			<point x="768" y="43.1"/>
			<point x="768" y="94.04" type="curve"/>
			<point x="768" y="146.94"/>
			<point x="726.86" y="188.08"/>
			<point x="673.96" y="188.08" type="curve"/>
			<point x="623.02" y="188.08"/>
			<point x="579.92" y="146.94"/>
			<point x="579.92" y="94.04" type="curve"/>
			<point x="579.92" y="43.1"/>
			<point x="623.02" y="0"/>
		</contour>
		<contour>
			<point x="673.96" y="321.31" type="curve"/>
			<point x="640.65" y="321.31"/>
			<point x="611.27" y="350.69"/>
			<point x="611.27" y="384" type="curve"/>
			<point x="611.27" y="419.27"/>
			<point x="640.65" y="446.69"/>
			<point x="673.96" y="446.69" type="curve"/>
			<point x="709.22" y="446.69"/>
			<point x="736.65" y="419.27"/>
			<point x="736.65" y="384" type="curve"/>
			<point x="736.65" y="350.69"/>
			<point x="709.22" y="321.31"/>
		</contour>
		<contour>
			<point x="673.96" y="289.96" type="curve"/>
			<point x="726.86" y="289.96"/>
			<point x="768" y="333.06"/>
			<point x="768" y="384" type="curve"/>
			<point x="768" y="436.9"/>
			<point x="726.86" y="478.04"/>
			<point x="673.96" y="478.04" type="curve"/>
			<point x="623.02" y="478.04"/>
			<point x="579.92" y="436.9"/>
			<point x="579.92" y="384" type="curve"/>
			<point x="579.92" y="333.06"/>
			<point x="623.02" y="289.96"/>
		</contour>
		<contour>
			<point x="673.96" y="611.27" type="curve"/>
			<point x="640.65" y="611.27"/>
			<point x="611.27" y="640.65"/>
			<point x="611.27" y="673.96" type="curve"/>
			<point x="611.27" y="709.22"/>
			<point x="640.65" y="736.65"/>
			<point x="673.96" y="736.65" type="curve"/>
			<point x="709.22" y="736.65"/>
			<point x="736.65" y="709.22"/>
			<point x="736.65" y="673.96" type="curve"/>
			<point x="736.65" y="640.65"/>
			<point x="709.22" y="611.27"/>
		</contour>
		<contour>
			<point x="673.96" y="579.92" type="curve"/>
			<point x="726.86" y="579.92"/>
			<point x="768" y="623.02"/>
			<point x="768" y="673.96" type="curve"/>
			<point x="768" y="726.86"/>
			<point x="726.86" y="768"/>
			<point x="673.96" y="768" type="curve"/>
			<point x="623.02" y="768"/>
			<point x="579.92" y="726.86"/>
			<point x="579.92" y="673.96" type="curve"/>
			<point x="579.92" y="623.02"/>
			<point x="623.02" y="579.92"/>
		</contour>
		<contour>
			<point x="74.45" y="180.24" type="line"/>
			<point x="113.63" y="180.24" type="line"/>
			<point x="113.63" y="305.63" type="line"/>
			<point x="74.45" y="305.63" type="line"/>
		</contour>
		<contour>
			<point x="74.45" y="462.37" type="line"/>
			<point x="113.63" y="462.37" type="line"/>
			<point x="113.63" y="587.76" type="line"/>
			<point x="74.45" y="587.76" type="line"/>
		</contour>
		<contour>
			<point x="364.41" y="180.24" type="line"/>
			<point x="403.59" y="180.24" type="line"/>
			<point x="403.59" y="305.63" type="line"/>
			<point x="364.41" y="305.63" type="line"/>
		</contour>
		<contour>
			<point x="364.41" y="462.37" type="line"/>
			<point x="403.59" y="462.37" type="line"/>
			<point x="403.59" y="587.76" type="line"/>
			<point x="364.41" y="587.76" type="line"/>
		</contour>
		<contour>
			<point x="654.37" y="180.24" type="line"/>
			<point x="693.55" y="180.24" type="line"/>
			<point x="693.55" y="305.63" type="line"/>
			<point x="654.37" y="305.63" type="line"/>
		</contour>
		<contour>
			<point x="654.37" y="462.37" type="line"/>
			<point x="693.55" y="462.37" type="line"/>
			<point x="693.55" y="587.76" type="line"/>
			<point x="654.37" y="587.76" type="line"/>
		</contour>
		<contour>
			<point x="462.37" y="654.37" type="line"/>
			<point x="587.76" y="654.37" type="line"/>
			<point x="587.76" y="693.55" type="line"/>
			<point x="462.37" y="693.55" type="line"/>
		</contour>
		<contour>
			<point x="180.24" y="654.37" type="line"/>
			<point x="305.63" y="654.37" type="line"/>
			<point x="305.63" y="693.55" type="line"/>
			<point x="180.24" y="693.55" type="line"/>
		</contour>
		<contour>
			<point x="462.37" y="364.41" type="line"/>
			<point x="587.76" y="364.41" type="line"/>
			<point x="587.76" y="403.59" type="line"/>
			<point x="462.37" y="403.59" type="line"/>
		</contour>
		<contour>
			<point x="180.24" y="364.41" type="line"/>
			<point x="305.63" y="364.41" type="line"/>
			<point x="305.63" y="403.59" type="line"/>
			<point x="180.24" y="403.59" type="line"/>
		</contour>
		<contour>
			<point x="462.37" y="74.45" type="line"/>
			<point x="587.76" y="74.45" type="line"/>
			<point x="587.76" y="113.63" type="line"/>
			<point x="462.37" y="113.63" type="line"/>
		</contour>
		<contour>
			<point x="180.24" y="74.45" type="line"/>
			<point x="305.63" y="74.45" type="line"/>
			<point x="305.63" y="113.63" type="line"/>
			<point x="180.24" y="113.63" type="line"/>
		</contour>
	</outline>
</glyph>
<glyph name="preview" format="2">
	<advance width="768"/>
	<unicode hex="E006"/>
	<outline>
		<contour>
			<point x="223.28" y="0" type="line"/>
			<point x="207.88" y="0" type="line"/>
			<point x="200.18" y="9.62"/>
			<point x="200.18" y="23.1"/>
			<point x="200.18" y="23.1" type="curve"/>
			<point x="200.18" y="69.29" type="line" smooth="yes"/>
			<point x="200.18" y="80.84"/>
			<point x="194.41" y="90.47"/>
			<point x="177.08" y="107.79" type="curve" smooth="yes"/>
			<point x="100.09" y="184.78"/>
			<point x="63.52" y="319.52"/>
			<point x="63.52" y="506.23" type="curve" smooth="yes"/>
			<point x="63.52" y="573.59"/>
			<point x="86.62" y="606.32"/>
			<point x="109.71" y="606.32" type="curve" smooth="yes"/>
			<point x="123.19" y="606.32"/>
			<point x="128.96" y="596.69"/>
			<point x="128.96" y="583.22" type="curve" smooth="yes"/>
			<point x="128.96" y="567.82"/>
			<point x="125.11" y="552.42"/>
			<point x="125.11" y="513.92" type="curve" smooth="yes"/>
			<point x="125.11" y="488.9"/>
			<point x="138.59" y="425.38"/>
			<point x="152.06" y="398.44" type="curve" smooth="yes"/>
			<point x="155.91" y="390.74"/>
			<point x="163.61" y="388.81"/>
			<point x="169.38" y="388.81" type="curve" smooth="yes"/>
			<point x="175.16" y="388.81"/>
			<point x="180.93" y="390.74"/>
			<point x="180.93" y="398.44" type="curve" smooth="yes"/>
			<point x="180.93" y="409.98"/>
			<point x="169.38" y="448.48"/>
			<point x="169.38" y="483.13" type="curve" smooth="yes"/>
			<point x="169.38" y="581.29"/>
			<point x="198.26" y="714.11"/>
			<point x="232.9" y="714.11" type="curve" smooth="yes"/>
			<point x="267.55" y="714.11"/>
			<point x="263.7" y="691.01"/>
			<point x="263.7" y="679.46" type="curve" smooth="yes"/>
			<point x="263.7" y="662.14"/>
			<point x="252.15" y="637.11"/>
			<point x="252.15" y="554.35" type="curve" smooth="yes"/>
			<point x="252.15" y="486.98"/>
			<point x="256" y="461.95"/>
			<point x="257.92" y="454.26" type="curve" smooth="yes"/>
			<point x="259.85" y="446.56"/>
			<point x="267.55" y="440.78"/>
			<point x="273.32" y="440.78" type="curve" smooth="yes"/>
			<point x="279.1" y="440.78"/>
			<point x="286.8" y="446.56"/>
			<point x="286.8" y="454.26" type="curve" smooth="yes"/>
			<point x="286.8" y="600.54"/>
			<point x="332.99" y="704.48"/>
			<point x="358.02" y="739.13" type="curve" smooth="yes"/>
			<point x="373.41" y="760.3"/>
			<point x="388.81" y="768"/>
			<point x="409.98" y="768" type="curve" smooth="yes"/>
			<point x="421.53" y="768"/>
			<point x="429.23" y="756.45"/>
			<point x="429.23" y="739.13" type="curve" smooth="yes"/>
			<point x="429.23" y="716.03"/>
			<point x="377.26" y="654.44"/>
			<point x="377.26" y="506.23" type="curve" smooth="yes"/>
			<point x="377.26" y="481.2"/>
			<point x="377.26" y="461.95"/>
			<point x="379.19" y="456.18" type="curve" smooth="yes"/>
			<point x="381.11" y="450.41"/>
			<point x="384.96" y="448.48"/>
			<point x="388.81" y="448.48" type="curve" smooth="yes"/>
			<point x="392.66" y="448.48"/>
			<point x="400.36" y="452.33"/>
			<point x="402.29" y="458.11" type="curve"/>
			<point x="429.23" y="581.29"/>
			<point x="475.43" y="650.59"/>
			<point x="508.15" y="681.38" type="curve" smooth="yes"/>
			<point x="521.62" y="694.86"/>
			<point x="533.17" y="698.71"/>
			<point x="546.65" y="698.71" type="curve" smooth="yes"/>
			<point x="560.12" y="698.71"/>
			<point x="563.97" y="689.08"/>
			<point x="563.97" y="673.68" type="curve" smooth="yes"/>
			<point x="563.97" y="654.44"/>
			<point x="479.28" y="510.08"/>
			<point x="479.28" y="377.26" type="curve" smooth="yes"/>
			<point x="479.28" y="321.44"/>
			<point x="513.92" y="296.42"/>
			<point x="537.02" y="296.42" type="curve" smooth="yes"/>
			<point x="565.89" y="296.42"/>
			<point x="590.92" y="342.62"/>
			<point x="612.09" y="381.11" type="curve" smooth="yes"/>
			<point x="637.11" y="425.38"/>
			<point x="658.29" y="444.63"/>
			<point x="683.31" y="444.63" type="curve" smooth="yes"/>
			<point x="696.78" y="444.63"/>
			<point x="704.48" y="436.93"/>
			<point x="704.48" y="419.61" type="curve" smooth="yes"/>
			<point x="704.48" y="381.11"/>
			<point x="619.79" y="125.11"/>
			<point x="475.43" y="61.59" type="curve" smooth="yes"/>
			<point x="458.11" y="53.89"/>
			<point x="448.48" y="44.27"/>
			<point x="448.48" y="32.72" type="curve" smooth="yes"/>
			<point x="448.48" y="23.1" type="line" smooth="yes"/>
			<point x="448.48" y="7.7"/>
			<point x="442.71" y="0"/>
			<point x="429.23" y="0" type="curve" smooth="yes"/>
		</contour>
	</outline>
</glyph>
<glyph name="measure" format="2">
	<advance width="768"/>
	<unicode hex="E00A"/>
	<outline>
		<contour>
			<point x="595.15" y="16.7" type="curve" smooth="yes"/>
			<point x="752.29" y="173.83" type="line" smooth="yes"/>
			<point x="768" y="189.54"/>
			<point x="768" y="203.29"/>
			<point x="752.29" y="219.01" type="curve" smooth="yes"/>
			<point x="218.03" y="751.3" type="line" smooth="yes"/>
			<point x="202.31" y="767.02"/>
			<point x="188.56" y="767.02"/>
			<point x="172.85" y="751.3" type="curve" smooth="yes"/>
			<point x="15.71" y="594.17" type="line" smooth="yes"/>
			<point x="0" y="578.46"/>
			<point x="0" y="564.71"/>
			<point x="15.71" y="548.99" type="curve" smooth="yes"/>
			<point x="549.97" y="16.7" type="line" smooth="yes"/>
			<point x="565.69" y="0.98"/>
			<point x="579.44" y="0.98"/>
		</contour>
		<contour>
			<point x="106.07" y="533.28" type="line" smooth="yes"/>
			<point x="94.28" y="521.49"/>
			<point x="90.35" y="521.49"/>
			<point x="78.57" y="533.28" type="curve" smooth="yes"/>
			<point x="72.68" y="539.17" type="line" smooth="yes"/>
			<point x="60.89" y="550.96"/>
			<point x="60.89" y="554.88"/>
			<point x="72.68" y="566.67" type="curve" smooth="yes"/>
			<point x="129.64" y="623.63" type="line" smooth="yes"/>
			<point x="141.42" y="635.42"/>
			<point x="145.35" y="635.42"/>
			<point x="157.14" y="623.63" type="curve" smooth="yes"/>
			<point x="163.03" y="617.74" type="line" smooth="yes"/>
			<point x="174.81" y="605.95"/>
			<point x="174.81" y="602.03"/>
			<point x="163.03" y="590.24" type="curve" smooth="yes"/>
		</contour>
		<contour>
			<point x="182.67" y="454.71" type="line" smooth="yes"/>
			<point x="170.88" y="442.93"/>
			<point x="166.96" y="442.93"/>
			<point x="155.17" y="454.71" type="curve" smooth="yes"/>
			<point x="149.28" y="460.6" type="line" smooth="yes"/>
			<point x="137.49" y="472.39"/>
			<point x="137.49" y="476.32"/>
			<point x="149.28" y="488.1" type="curve" smooth="yes"/>
			<point x="245.52" y="584.35" type="line" smooth="yes"/>
			<point x="257.31" y="596.13"/>
			<point x="261.24" y="596.13"/>
			<point x="273.02" y="584.35" type="curve" smooth="yes"/>
			<point x="278.92" y="578.46" type="line" smooth="yes"/>
			<point x="290.7" y="566.67"/>
			<point x="290.7" y="562.74"/>
			<point x="278.92" y="550.96" type="curve" smooth="yes"/>
		</contour>
		<contour>
			<point x="261.24" y="378.11" type="line" smooth="yes"/>
			<point x="249.45" y="366.32"/>
			<point x="245.52" y="366.32"/>
			<point x="233.74" y="378.11" type="curve" smooth="yes"/>
			<point x="227.85" y="384" type="line" smooth="yes"/>
			<point x="216.06" y="395.79"/>
			<point x="216.06" y="399.71"/>
			<point x="227.85" y="411.5" type="curve" smooth="yes"/>
			<point x="284.81" y="468.46" type="line" smooth="yes"/>
			<point x="296.59" y="480.25"/>
			<point x="300.52" y="480.25"/>
			<point x="312.31" y="468.46" type="curve" smooth="yes"/>
			<point x="318.2" y="462.57" type="line" smooth="yes"/>
			<point x="329.98" y="450.78"/>
			<point x="329.98" y="446.85"/>
			<point x="318.2" y="435.07" type="curve" smooth="yes"/>
		</contour>
		<contour>
			<point x="339.81" y="299.54" type="line" smooth="yes"/>
			<point x="328.02" y="287.75"/>
			<point x="322.13" y="287.75"/>
			<point x="310.34" y="299.54" type="curve"/>
			<point x="306.41" y="305.43" type="line"/>
			<point x="294.63" y="317.22"/>
			<point x="294.63" y="321.15"/>
			<point x="306.41" y="332.93" type="curve" smooth="yes"/>
			<point x="400.7" y="429.18" type="line" smooth="yes"/>
			<point x="412.48" y="440.96"/>
			<point x="416.41" y="440.96"/>
			<point x="428.19" y="429.18" type="curve" smooth="yes"/>
			<point x="434.09" y="423.28" type="line" smooth="yes"/>
			<point x="445.87" y="411.5"/>
			<point x="445.87" y="407.57"/>
			<point x="434.09" y="395.79" type="curve" smooth="yes"/>
		</contour>
		<contour>
			<point x="416.41" y="222.94" type="line" smooth="yes"/>
			<point x="404.62" y="211.15"/>
			<point x="400.7" y="211.15"/>
			<point x="388.91" y="222.94" type="curve"/>
			<point x="383.02" y="226.86" type="line"/>
			<point x="371.23" y="238.65"/>
			<point x="371.23" y="244.54"/>
			<point x="383.02" y="256.33" type="curve" smooth="yes"/>
			<point x="439.98" y="313.29" type="line" smooth="yes"/>
			<point x="451.76" y="325.07"/>
			<point x="455.69" y="325.07"/>
			<point x="467.48" y="313.29" type="curve" smooth="yes"/>
			<point x="473.37" y="307.4" type="line" smooth="yes"/>
			<point x="485.16" y="295.61"/>
			<point x="485.16" y="291.68"/>
			<point x="473.37" y="279.9" type="curve" smooth="yes"/>
		</contour>
		<contour>
			<point x="494.98" y="144.37" type="line" smooth="yes"/>
			<point x="483.19" y="132.58"/>
			<point x="479.26" y="132.58"/>
			<point x="467.48" y="144.37" type="curve" smooth="yes"/>
			<point x="461.59" y="150.26" type="line" smooth="yes"/>
			<point x="449.8" y="162.05"/>
			<point x="449.8" y="165.97"/>
			<point x="461.59" y="177.76" type="curve" smooth="yes"/>
			<point x="557.83" y="274.01" type="line" smooth="yes"/>
			<point x="569.62" y="285.79"/>
			<point x="573.54" y="285.79"/>
			<point x="585.33" y="274.01" type="curve" smooth="yes"/>
			<point x="591.22" y="268.11" type="line" smooth="yes"/>
			<point x="603.01" y="256.33"/>
			<point x="603.01" y="252.4"/>
			<point x="591.22" y="240.61" type="curve" smooth="yes"/>
		</contour>
		<contour>
			<point x="571.58" y="65.8" type="line" smooth="yes"/>
			<point x="559.8" y="54.02"/>
			<point x="555.87" y="54.02"/>
			<point x="544.08" y="65.8" type="curve" smooth="yes"/>
			<point x="538.19" y="71.69" type="line" smooth="yes"/>
			<point x="526.4" y="83.48"/>
			<point x="526.4" y="87.41"/>
			<point x="538.19" y="99.19" type="curve" smooth="yes"/>
			<point x="595.15" y="156.15" type="line" smooth="yes"/>
			<point x="606.94" y="167.94"/>
			<point x="610.86" y="167.94"/>
			<point x="622.65" y="156.15" type="curve"/>
			<point x="628.54" y="152.23" type="line"/>
			<point x="640.33" y="140.44"/>
			<point x="640.33" y="134.55"/>
			<point x="628.54" y="122.76" type="curve" smooth="yes"/>
		</contour>
	</outline>
</glyph>
<glyph name="text-rtl" format="2">
	<advance width="768"/>
	<unicode hex="E018"/>
	<outline>
		<contour>
			<point x="410" y="736"/>
			<point x="424" y="736" type="curve" smooth="yes"/>
			<point x="438" y="736"/>
			<point x="448" y="728"/>
			<point x="448" y="704" type="curve" smooth="yes"/>
			<point x="448" y="576" type="line" smooth="yes"/>
			<point x="448" y="552"/>
			<point x="456" y="544"/>
			<point x="480" y="544" type="curve" smooth="yes"/>
			<point x="672" y="544" type="line" smooth="yes"/>
			<point x="720" y="544"/>
			<point x="736" y="528"/>
			<point x="736" y="480" type="curve" smooth="yes"/>
			<point x="736" y="288" type="line" smooth="yes"/>
			<point x="736" y="240"/>
			<point x="720" y="224"/>
			<point x="672" y="224" type="curve" smooth="yes"/>
			<point x="480" y="224" type="line" smooth="yes"/>
			<point x="456" y="224"/>
			<point x="448" y="216"/>
			<point x="448" y="192" type="curve" smooth="yes"/>
			<point x="448" y="64" type="line" smooth="yes"/>
			<point x="448" y="40"/>
			<point x="440" y="32"/>
			<point x="432" y="32" type="curve" smooth="yes"/>
			<point x="424" y="32"/>
			<point x="412" y="38"/>
			<point x="400" y="48" type="curve" smooth="yes"/>
			<point x="48" y="362" type="line" smooth="yes"/>
			<point x="38" y="370"/>
			<point x="32" y="376"/>
			<point x="32" y="384" type="curve" smooth="yes"/>
			<point x="32" y="392"/>
			<point x="40" y="396"/>
			<point x="48" y="406" type="curve" smooth="yes"/>
			<point x="384" y="712" type="line" smooth="yes"/>
			<point x="396" y="724"/>
		</contour>
	</outline>
</glyph>
<glyph name="rot-cw" format="2">
	<advance width="768"/>
	<unicode hex="E022"/>
	<outline>
		<contour>
			<point x="736" y="336" type="curve" smooth="yes"/>
			<point x="736" y="320" type="line" smooth="yes"/>
			<point x="736" y="176"/>
			<point x="590" y="36"/>
			<point x="384" y="32" type="curve" smooth="yes"/>
			<point x="190" y="28"/>
			<point x="32" y="138"/>
			<point x="32" y="336" type="curve" smooth="yes"/>
			<point x="32" y="554"/>
			<point x="178" y="672"/>
			<point x="384" y="672" type="curve" smooth="yes"/>
			<point x="476" y="672" type="line" smooth="yes"/>
			<point x="492" y="672"/>
			<point x="500" y="680"/>
			<point x="500" y="696" type="curve" smooth="yes"/>
			<point x="500" y="724" type="line" smooth="yes"/>
			<point x="500" y="738"/>
			<point x="506" y="748"/>
			<point x="520" y="748" type="curve" smooth="yes"/>
			<point x="532" y="748"/>
			<point x="544" y="740"/>
			<point x="560" y="730" type="curve" smooth="yes"/>
			<point x="712" y="642" type="line" smooth="yes"/>
			<point x="726" y="632"/>
			<point x="736" y="622"/>
			<point x="736" y="608" type="curve" smooth="yes"/>
			<point x="736" y="594"/>
			<point x="724" y="584"/>
			<point x="708" y="576" type="curve" smooth="yes"/>
			<point x="566" y="508" type="line" smooth="yes"/>
			<point x="546" y="498"/>
			<point x="536" y="490"/>
			<point x="516" y="490" type="curve" smooth="yes"/>
			<point x="504" y="490"/>
			<point x="500" y="512"/>
			<point x="500" y="526" type="curve" smooth="yes"/>
			<point x="500" y="554" type="line" smooth="yes"/>
			<point x="500" y="570"/>
			<point x="494" y="576"/>
			<point x="478" y="576" type="curve" smooth="yes"/>
			<point x="384" y="576" type="line" smooth="yes"/>
			<point x="252" y="576"/>
			<point x="128" y="512"/>
			<point x="128" y="336" type="curve" smooth="yes"/>
			<point x="128" y="196"/>
			<point x="272" y="128"/>
			<point x="384" y="128" type="curve" smooth="yes"/>
			<point x="506" y="128"/>
			<point x="640" y="214"/>
			<point x="640" y="320" type="curve" smooth="yes"/>
			<point x="640" y="336" type="line" smooth="yes"/>
			<point x="640" y="362"/>
			<point x="660" y="384"/>
			<point x="680" y="384" type="curve" smooth="yes"/>
			<point x="696" y="384" type="line" smooth="yes"/>
			<point x="712" y="384"/>
			<point x="736" y="362"/>
		</contour>
	</outline>
</glyph>
<glyph name="union" format="2">
	<advance width="768"/>
	<unicode hex="E030"/>
	<outline>
		<contour>
			<point x="648" y="32" type="curve" smooth="yes"/>
			<point x="376" y="32" type="line" smooth="yes"/>
			<point x="312" y="32"/>
			<point x="288" y="56"/>
			<point x="288" y="120" type="curve" smooth="yes"/>
			<point x="288" y="256" type="line" smooth="yes"/>
			<point x="288" y="280"/>
			<point x="280" y="288"/>
			<point x="256" y="288" type="curve" smooth="yes"/>
			<point x="120" y="288" type="line" smooth="yes"/>
			<point x="56" y="288"/>
			<point x="32" y="312"/>
			<point x="32" y="376" type="curve" smooth="yes"/>
			<point x="32" y="648" type="line" smooth="yes"/>
			<point x="32" y="712"/>
			<point x="56" y="736"/>
			<point x="120" y="736" type="curve" smooth="yes"/>
			<point x="392" y="736" type="line" smooth="yes"/>
			<point x="456" y="736"/>
			<point x="480" y="712"/>
			<point x="480" y="648" type="curve" smooth="yes"/>
			<point x="480" y="512" type="line" smooth="yes"/>
			<point x="480" y="488"/>
			<point x="488" y="480"/>
			<point x="512" y="480" type="curve" smooth="yes"/>
			<point x="648" y="480" type="line" smooth="yes"/>
			<point x="712" y="480"/>
			<point x="736" y="456"/>
			<point x="736" y="392" type="curve" smooth="yes"/>
			<point x="736" y="120" type="line" smooth="yes"/>
			<point x="736" y="56"/>
			<point x="712" y="32"/>
		</contour>
		<contour>
			<point x="352" y="128" type="line" smooth="yes"/>
			<point x="352" y="104"/>
			<point x="360" y="96"/>
			<point x="384" y="96" type="curve" smooth="yes"/>
			<point x="640" y="96" type="line" smooth="yes"/>
			<point x="664" y="96"/>
			<point x="672" y="104"/>
			<point x="672" y="128" type="curve" smooth="yes"/>
			<point x="672" y="384" type="line" smooth="yes"/>
			<point x="672" y="408"/>
			<point x="664" y="416"/>
			<point x="640" y="416" type="curve" smooth="yes"/>
			<point x="504" y="416" type="line" smooth="yes"/>
			<point x="440" y="416"/>
			<point x="416" y="440"/>
			<point x="416" y="504" type="curve" smooth="yes"/>
			<point x="416" y="640" type="line" smooth="yes"/>
			<point x="416" y="664"/>
			<point x="408" y="672"/>
			<point x="384" y="672" type="curve" smooth="yes"/>
			<point x="128" y="672" type="line" smooth="yes"/>
			<point x="104" y="672"/>
			<point x="96" y="664"/>
			<point x="96" y="640" type="curve" smooth="yes"/>
			<point x="96" y="384" type="line" smooth="yes"/>
			<point x="96" y="360"/>
			<point x="104" y="352"/>
			<point x="128" y="352" type="curve" smooth="yes"/>
			<point x="264" y="352" type="line" smooth="yes"/>
			<point x="328" y="352"/>
			<point x="352" y="328"/>
			<point x="352" y="264" type="curve" smooth="yes"/>
		</contour>
	</outline>
</glyph>
<glyph name="subtract" format="2">
	<advance width="768"/>
	<unicode hex="E031"/>
	<outline>
		<contour>
			<point x="408" y="64" type="line" smooth="yes"/>
			<point x="344" y="64"/>
			<point x="320" y="88"/>
			<point x="320" y="152" type="curve" smooth="yes"/>
			<point x="320" y="272" type="line" smooth="yes"/>
			<point x="320" y="320"/>
			<point x="352" y="352"/>
			<point x="400" y="352" type="curve" smooth="yes"/>
			<point x="412" y="352"/>
			<point x="416" y="356"/>
			<point x="416" y="368" type="curve" smooth="yes"/>
			<point x="416" y="432"/>
			<point x="432" y="448"/>
			<point x="488" y="448" type="curve" smooth="yes"/>
			<point x="616" y="448" type="line" smooth="yes"/>
			<point x="680" y="448"/>
			<point x="704" y="424"/>
			<point x="704" y="360" type="curve" smooth="yes"/>
			<point x="704" y="152" type="line" smooth="yes"/>
			<point x="704" y="88"/>
			<point x="680" y="64"/>
			<point x="616" y="64" type="curve" smooth="yes"/>
		</contour>
		<contour>
			<point x="392" y="128"/>
			<point x="416" y="128" type="curve" smooth="yes"/>
			<point x="608" y="128" type="line" smooth="yes"/>
			<point x="632" y="128"/>
			<point x="640" y="136"/>
			<point x="640" y="160" type="curve" smooth="yes"/>
			<point x="640" y="352" type="line" smooth="yes"/>
			<point x="640" y="376"/>
			<point x="632" y="384"/>
			<point x="608" y="384" type="curve" smooth="yes"/>
			<point x="496" y="384" type="line" smooth="yes"/>
			<point x="484" y="384"/>
			<point x="480" y="380"/>
			<point x="480" y="368" type="curve" smooth="yes"/>
			<point x="480" y="312"/>
			<point x="456" y="288"/>
			<point x="400" y="288" type="curve" smooth="yes"/>
			<point x="388" y="288"/>
			<point x="384" y="284"/>
			<point x="384" y="272" type="curve" smooth="yes"/>
			<point x="384" y="160" type="line" smooth="yes"/>
			<point x="384" y="136"/>
		</contour>
		<contour>
			<point x="64" y="336"/>
			<point x="64" y="408" type="curve" smooth="yes"/>
			<point x="64" y="424" type="line" smooth="yes"/>
			<point x="64" y="444"/>
			<point x="68" y="448"/>
			<point x="88" y="448" type="curve" smooth="yes"/>
			<point x="104" y="448" type="line" smooth="yes"/>
			<point x="124" y="448"/>
			<point x="128" y="444"/>
			<point x="128" y="424" type="curve" smooth="yes"/>
			<point x="128" y="416" type="line" smooth="yes"/>
			<point x="128" y="392"/>
			<point x="136" y="384"/>
			<point x="160" y="384" type="curve" smooth="yes"/>
			<point x="168" y="384" type="line" smooth="yes"/>
			<point x="184" y="384"/>
			<point x="192" y="376"/>
			<point x="192" y="360" type="curve" smooth="yes"/>
			<point x="192" y="344" type="line" smooth="yes"/>
			<point x="192" y="328"/>
			<point x="184" y="320"/>
			<point x="168" y="320" type="curve" smooth="yes"/>
			<point x="152" y="320" type="line" smooth="yes"/>
			<point x="80" y="320"/>
		</contour>
		<contour>
			<point x="224" y="344" type="curve" smooth="yes"/>
			<point x="224" y="360" type="line" smooth="yes"/>
			<point x="224" y="376"/>
			<point x="232" y="384"/>
			<point x="248" y="384" type="curve" smooth="yes"/>
			<point x="296" y="384" type="line" smooth="yes"/>
			<point x="312" y="384"/>
			<point x="320" y="376"/>
			<point x="320" y="360" type="curve" smooth="yes"/>
			<point x="320" y="344" type="line" smooth="yes"/>
			<point x="320" y="328"/>
			<point x="312" y="320"/>
			<point x="296" y="320" type="curve" smooth="yes"/>
			<point x="248" y="320" type="line" smooth="yes"/>
			<point x="232" y="320"/>
			<point x="224" y="328"/>
		</contour>
		<contour>
			<point x="80" y="736"/>
			<point x="152" y="736" type="curve" smooth="yes"/>
			<point x="168" y="736" type="line" smooth="yes"/>
			<point x="188" y="736"/>
			<point x="192" y="732"/>
			<point x="192" y="712" type="curve" smooth="yes"/>
			<point x="192" y="696" type="line" smooth="yes"/>
			<point x="192" y="676"/>
			<point x="188" y="672"/>
			<point x="168" y="672" type="curve" smooth="yes"/>
			<point x="160" y="672" type="line" smooth="yes"/>
			<point x="136" y="672"/>
			<point x="128" y="664"/>
			<point x="128" y="640" type="curve" smooth="yes"/>
			<point x="128" y="632" type="line" smooth="yes"/>
			<point x="128" y="616"/>
			<point x="120" y="608"/>
			<point x="104" y="608" type="curve" smooth="yes"/>
			<point x="88" y="608" type="line" smooth="yes"/>
			<point x="72" y="608"/>
			<point x="64" y="616"/>
			<point x="64" y="632" type="curve" smooth="yes"/>
			<point x="64" y="648" type="line" smooth="yes"/>
			<point x="64" y="720"/>
		</contour>
		<contour>
			<point x="88" y="576" type="curve" smooth="yes"/>
			<point x="104" y="576" type="line" smooth="yes"/>
			<point x="120" y="576"/>
			<point x="128" y="568"/>
			<point x="128" y="552" type="curve" smooth="yes"/>
			<point x="128" y="504" type="line" smooth="yes"/>
			<point x="128" y="488"/>
			<point x="120" y="480"/>
			<point x="104" y="480" type="curve" smooth="yes"/>
			<point x="88" y="480" type="line" smooth="yes"/>
			<point x="72" y="480"/>
			<point x="64" y="488"/>
			<point x="64" y="504" type="curve" smooth="yes"/>
			<point x="64" y="552" type="line" smooth="yes"/>
			<point x="64" y="568"/>
			<point x="72" y="576"/>
		</contour>
		<contour>
			<point x="480" y="720"/>
			<point x="480" y="648" type="curve" smooth="yes"/>
			<point x="480" y="632" type="line" smooth="yes"/>
			<point x="480" y="612"/>
			<point x="476" y="608"/>
			<point x="456" y="608" type="curve" smooth="yes"/>
			<point x="440" y="608" type="line" smooth="yes"/>
			<point x="420" y="608"/>
			<point x="416" y="612"/>
			<point x="416" y="632" type="curve" smooth="yes"/>
			<point x="416" y="640" type="line" smooth="yes"/>
			<point x="416" y="664"/>
			<point x="408" y="672"/>
			<point x="384" y="672" type="curve" smooth="yes"/>
			<point x="376" y="672" type="line" smooth="yes"/>
			<point x="360" y="672"/>
			<point x="352" y="680"/>
			<point x="352" y="696" type="curve" smooth="yes"/>
			<point x="352" y="712" type="line" smooth="yes"/>
			<point x="352" y="728"/>
			<point x="360" y="736"/>
			<point x="376" y="736" type="curve" smooth="yes"/>
			<point x="392" y="736" type="line" smooth="yes"/>
			<point x="464" y="736"/>
		</contour>
		<contour>
			<point x="320" y="712" type="curve" smooth="yes"/>
			<point x="320" y="696" type="line" smooth="yes"/>
			<point x="320" y="680"/>
			<point x="312" y="672"/>
			<point x="296" y="672" type="curve" smooth="yes"/>
			<point x="248" y="672" type="line" smooth="yes"/>
			<point x="232" y="672"/>
			<point x="224" y="680"/>
			<point x="224" y="696" type="curve" smooth="yes"/>
			<point x="224" y="712" type="line" smooth="yes"/>
			<point x="224" y="728"/>
			<point x="232" y="736"/>
			<point x="248" y="736" type="curve" smooth="yes"/>
			<point x="296" y="736" type="line" smooth="yes"/>
			<point x="312" y="736"/>
			<point x="320" y="728"/>
		</contour>
		<contour>
			<point x="440" y="576" type="curve" smooth="yes"/>
			<point x="456" y="576" type="line" smooth="yes"/>
			<point x="472" y="576"/>
			<point x="480" y="568"/>
			<point x="480" y="552" type="curve" smooth="yes"/>
			<point x="480" y="504" type="line" smooth="yes"/>
			<point x="480" y="488"/>
			<point x="472" y="480"/>
			<point x="456" y="480" type="curve" smooth="yes"/>
			<point x="440" y="480" type="line" smooth="yes"/>
			<point x="424" y="480"/>
			<point x="416" y="488"/>
			<point x="416" y="504" type="curve" smooth="yes"/>
			<point x="416" y="552" type="line" smooth="yes"/>
			<point x="416" y="568"/>
			<point x="424" y="576"/>
		</contour>
	</outline>
</glyph>
<glyph name="intersect" format="2">
	<advance width="768"/>
	<unicode hex="E032"/>
	<outline>
		<contour>
			<point x="648" y="32" type="curve" smooth="yes"/>
			<point x="408" y="32" type="line" smooth="yes"/>
			<point x="344" y="32"/>
			<point x="320" y="56"/>
			<point x="320" y="120" type="curve" smooth="yes"/>
			<point x="320" y="288" type="line" smooth="yes"/>
			<point x="320" y="312"/>
			<point x="312" y="320"/>
			<point x="288" y="320" type="curve" smooth="yes"/>
			<point x="120" y="320" type="line" smooth="yes"/>
			<point x="56" y="320"/>
			<point x="32" y="344"/>
			<point x="32" y="408" type="curve" smooth="yes"/>
			<point x="32" y="648" type="line" smooth="yes"/>
			<point x="32" y="712"/>
			<point x="56" y="736"/>
			<point x="120" y="736" type="curve" smooth="yes"/>
			<point x="360" y="736" type="line" smooth="yes"/>
			<point x="424" y="736"/>
			<point x="448" y="712"/>
			<point x="448" y="648" type="curve" smooth="yes"/>
			<point x="448" y="480" type="line" smooth="yes"/>
			<point x="448" y="456"/>
			<point x="456" y="448"/>
			<point x="480" y="448" type="curve" smooth="yes"/>
			<point x="648" y="448" type="line" smooth="yes"/>
			<point x="712" y="448"/>
			<point x="736" y="424"/>
			<point x="736" y="360" type="curve" smooth="yes"/>
			<point x="736" y="120" type="line" smooth="yes"/>
			<point x="736" y="56"/>
			<point x="712" y="32"/>
		</contour>
		<contour>
			<point x="384" y="128" type="line" smooth="yes"/>
			<point x="384" y="104"/>
			<point x="392" y="96"/>
			<point x="416" y="96" type="curve" smooth="yes"/>
			<point x="640" y="96" type="line" smooth="yes"/>
			<point x="664" y="96"/>
			<point x="672" y="104"/>
			<point x="672" y="128" type="curve" smooth="yes"/>
			<point x="672" y="352" type="line" smooth="yes"/>
			<point x="672" y="376"/>
			<point x="664" y="384"/>
			<point x="640" y="384" type="curve" smooth="yes"/>
			<point x="472" y="384" type="line" smooth="yes"/>
			<point x="408" y="384"/>
			<point x="384" y="408"/>
			<point x="384" y="472" type="curve" smooth="yes"/>
			<point x="384" y="640" type="line" smooth="yes"/>
			<point x="384" y="664"/>
			<point x="376" y="672"/>
			<point x="352" y="672" type="curve" smooth="yes"/>
			<point x="128" y="672" type="line" smooth="yes"/>
			<point x="104" y="672"/>
			<point x="96" y="664"/>
			<point x="96" y="640" type="curve" smooth="yes"/>
			<point x="96" y="416" type="line" smooth="yes"/>
			<point x="96" y="392"/>
			<point x="104" y="384"/>
			<point x="128" y="384" type="curve" smooth="yes"/>
			<point x="296" y="384" type="line" smooth="yes"/>
			<point x="360" y="384"/>
			<point x="384" y="360"/>
			<point x="384" y="296" type="curve" smooth="yes"/>
		</contour>
	</outline>
</glyph>
<glyph name="close" format="2">
	<advance width="768"/>
	<unicode hex="E052"/>
	<outline>
		<contour>
			<point x="118" y="21.999999999999993"/>
			<point x="152" y="56" type="curve" smooth="yes"/>
			<point x="384" y="288" type="line"/>
			<point x="616" y="56" type="line" smooth="yes"/>
			<point x="656" y="15.999999999999993"/>
			<point x="698" y="24"/>
			<point x="722" y="52" type="curve" smooth="yes"/>
			<point x="742" y="80"/>
			<point x="744" y="120"/>
			<point x="712" y="152" type="curve" smooth="yes"/>
			<point x="480" y="384" type="line"/>
			<point x="712" y="616" type="line" smooth="yes"/>
			<point x="744" y="648"/>
			<point x="748" y="690"/>
			<point x="726" y="716" type="curve" smooth="yes"/>
			<point x="694" y="748"/>
			<point x="648" y="744"/>
			<point x="616" y="712" type="curve" smooth="yes"/>
			<point x="384" y="480" type="line"/>
			<point x="144" y="720" type="line" smooth="yes"/>
			<point x="110" y="754"/>
			<point x="70" y="748"/>
			<point x="40" y="718" type="curve" smooth="yes"/>
			<point x="14" y="692"/>
			<point x="24.000000000000004" y="648"/>
			<point x="48" y="624" type="curve" smooth="yes"/>
			<point x="288" y="384" type="line"/>
			<point x="56" y="152" type="line" smooth="yes"/>
			<point x="21.999999999999993" y="118"/>
			<point x="28" y="82"/>
			<point x="52" y="56" type="curve" smooth="yes"/>
			<point x="76" y="32"/>
		</contour>
	</outline>
</glyph>
<glyph name="duplicate-repeat" format="2">
  <advance width="768" />
  <outline>
    <contour>
      <point x="104" y="280" type="line" />
      <point x="388" y="280" type="line" />
      <point x="388" y="564" type="line" />
      <point x="104" y="564" type="line" />
    </contour>
    <contour>
      <point x="276" y="156" type="line" />
      <point x="560" y="156" type="line" />
      <point x="560" y="440" type="line" />
      <point x="276" y="440" type="line" />
    </contour>
    <contour>
      <point x="448" y="32" type="line" />
      <point x="664" y="32" type="line" />
      <point x="664" y="248" type="line" />
      <point x="448" y="248" type="line" />
    </contour>
  </outline>
</glyph>
<glyph name="duplicate" format="2">
  <advance width="24"/>
  <outline>
    <contour>
      <point x="8.0" y="-8.0" type="line"/>
      <point x="18.0" y="-8.0" type="line"/>
      <point x="18.0" y="-18.0" type="line"/>
      <point x="8.0" y="-18.0" type="line"/>
    </contour>
    <contour>
      <point x="6.0" y="-16.0" type="move"/>
      <point x="4.0" y="-16.0" type="line"/>
      <point x="4.0" y="-4.0" type="line"/>
      <point x="16.0" y="-4.0" type="line"/>
      <point x="16.0" y="-6.0" type="line"/>
    </contour>
  </outline>
</glyph>
<glyph name="exclude" format="2">
  <advance width="24"/>
  <outline>
    <contour>
      <point x="13.0" y="-12.0" type="curve" smooth="yes"/>
      <point x="13.0" y="-14.209138999323175"/>
      <point x="11.209138999323175" y="-16.0"/>
      <point x="9.0" y="-16.0" type="curve" smooth="yes"/>
      <point x="6.790861000676825" y="-16.0"/>
      <point x="5.0" y="-14.209138999323175"/>
      <point x="5.0" y="-12.0" type="curve" smooth="yes"/>
      <point x="5.0" y="-9.790861000676825"/>
      <point x="6.790861000676825" y="-8.0"/>
      <point x="9.0" y="-8.0" type="curve" smooth="yes"/>
      <point x="11.209138999323175" y="-8.0"/>
      <point x="13.0" y="-9.790861000676825"/>
    </contour>
    <contour>
      <point x="19.0" y="-12.0" type="curve" smooth="yes"/>
      <point x="19.0" y="-14.209138999323175"/>
      <point x="17.209138999323173" y="-16.0"/>
      <point x="15.0" y="-16.0" type="curve" smooth="yes"/>
      <point x="12.790861000676825" y="-16.0"/>
      <point x="11.0" y="-14.209138999323175"/>
      <point x="11.0" y="-12.0" type="curve" smooth="yes"/>
      <point x="11.0" y="-9.790861000676825"/>
      <point x="12.790861000676825" y="-8.0"/>
      <point x="15.0" y="-8.0" type="curve" smooth="yes"/>
      <point x="17.209138999323173" y="-8.0"/>
      <point x="19.0" y="-9.790861000676825"/>
    </contour>
    <contour>
      <point x="9.0" y="-8.0" type="move"/>
      <point x="15.0" y="-16.0" type="line"/>
    </contour>
    <contour>
      <point x="15.0" y="-8.0" type="move"/>
      <point x="9.0" y="-16.0" type="line"/>
    </contour>
  </outline>
</glyph>
<glyph name="flip-h" format="2">
  <advance width="24"/>
  <outline>
    <contour>
      <point x="12.0" y="-4.0" type="move"/>
      <point x="12.0" y="-20.0" type="line"/>
    </contour>
    <contour>
      <point x="5.0" y="-7.0" type="line"/>
      <point x="10.0" y="-12.0" type="line"/>
      <point x="5.0" y="-17.0" type="line"/>
    </contour>
    <contour>
      <point x="19.0" y="-7.0" type="line"/>
      <point x="14.0" y="-12.0" type="line"/>
      <point x="19.0" y="-17.0" type="line"/>
    </contour>
  </outline>
</glyph>
<glyph name="flip-v" format="2">
  <advance width="768" />
  <outline>
    <contour>
      <point x="384" y="672" type="line" />
      <point x="632" y="432" type="line" />
      <point x="136" y="432" type="line" />
    </contour>
    <contour>
      <point x="96" y="356" type="line" />
      <point x="672" y="356" type="line" />
      <point x="672" y="412" type="line" />
      <point x="96" y="412" type="line" />
    </contour>
    <contour>
      <point x="384" y="96" type="line" />
      <point x="632" y="336" type="line" />
      <point x="136" y="336" type="line" />
    </contour>
  </outline>
</glyph>
<glyph name="hyperpen" format="2">
  <advance width="752"/>
  <outline>
    <contour>
      <point x="320.0" y="372.0" type="curve" smooth="yes"/>
      <point x="272.0" y="372.0"/>
      <point x="190.0" y="410.0"/>
      <point x="190.0" y="480.0" type="curve" smooth="yes"/>
      <point x="190.0" y="560.0"/>
      <point x="234.0" y="620.0"/>
      <point x="344.0" y="620.0" type="curve" smooth="yes"/>
      <point x="464.0" y="620.0"/>
      <point x="552.0" y="536.0"/>
      <point x="552.0" y="392.0" type="curve" smooth="yes"/>
      <point x="552.0" y="310.0"/>
      <point x="470.0" y="200.0"/>
      <point x="314.0" y="200.0" type="curve" smooth="yes"/>
      <point x="102.0" y="200.0"/>
      <point x="0.0" y="324.0"/>
      <point x="0.0" y="478.0" type="curve" smooth="yes"/>
      <point x="0.0" y="668.0"/>
      <point x="130.0" y="800.0"/>
      <point x="366.0" y="800.0" type="curve" smooth="yes"/>
      <point x="564.0" y="800.0"/>
      <point x="752.0" y="684.0"/>
      <point x="752.0" y="410.0" type="curve" smooth="yes"/>
      <point x="752.0" y="210.0"/>
      <point x="648.0" y="16.0"/>
      <point x="320.0" y="16.0" type="curve" smooth="yes"/>
      <point x="192.0" y="16.0"/>
      <point x="40.0" y="44.0"/>
      <point x="40.0" y="104.0" type="curve" smooth="yes"/>
      <point x="40.0" y="138.0"/>
      <point x="62.0" y="154.0"/>
      <point x="96.0" y="154.0" type="curve" smooth="yes"/>
      <point x="144.0" y="154.0"/>
      <point x="172.0" y="114.0"/>
      <point x="320.0" y="114.0" type="curve" smooth="yes"/>
      <point x="542.0" y="114.0"/>
      <point x="650.0" y="240.0"/>
      <point x="650.0" y="414.0" type="curve" smooth="yes"/>
      <point x="650.0" y="556.0"/>
      <point x="524.0" y="708.0"/>
      <point x="366.0" y="708.0" type="curve" smooth="yes"/>
      <point x="172.0" y="708.0"/>
      <point x="102.0" y="590.0"/>
      <point x="102.0" y="478.0" type="curve" smooth="yes"/>
      <point x="102.0" y="364.0"/>
      <point x="196.0" y="292.0"/>
      <point x="320.0" y="292.0" type="curve" smooth="yes"/>
      <point x="436.0" y="292.0"/>
      <point x="454.0" y="356.0"/>
      <point x="454.0" y="424.0" type="curve" smooth="yes"/>
      <point x="454.0" y="490.0"/>
      <point x="404.0" y="532.0"/>
      <point x="336.0" y="532.0" type="curve" smooth="yes"/>
      <point x="296.0" y="532.0"/>
      <point x="280.0" y="510.0"/>
      <point x="280.0" y="480.0" type="curve" smooth="yes"/>
      <point x="280.0" y="440.0"/>
      <point x="362.0" y="454.0"/>
      <point x="362.0" y="414.0" type="curve" smooth="yes"/>
      <point x="362.0" y="390.0"/>
      <point x="350.0" y="372.0"/>
    </contour>
  </outline>
</glyph>
<glyph name="knife" format="2">
  <advance width="768" />
  <outline>
    <contour>
      <point x="731.66" y="373.2" type="curve" smooth="yes" />
      <point x="757.2" y="398.73" />
      <point x="755.23" y="439.98" />
      <point x="731.66" y="463.55" type="curve" smooth="yes" />
      <point x="706.13" y="489.08" />
      <point x="666.84" y="489.08" />
      <point x="641.31" y="463.55" type="curve" smooth="yes" />
      <point x="625.6" y="447.84" />
      <point x="619.7" y="390.87" />
      <point x="603.99" y="375.16" type="curve" smooth="yes" />
      <point x="560.78" y="331.95" type="line" smooth="yes" />
      <point x="552.92" y="324.09" />
      <point x="545.06" y="328.02" />
      <point x="541.14" y="333.91" type="curve" />
      <point x="224.9" y="714.97" type="line" smooth="yes" />
      <point x="219.01" y="722.82" />
      <point x="215.08" y="732.64" />
      <point x="209.19" y="738.54" type="curve" smooth="yes" />
      <point x="203.29" y="744.43" />
      <point x="193.47" y="748.36" />
      <point x="185.62" y="748.36" type="curve" />
      <point x="26.52" y="766.04" type="line" />
      <point x="14.73" y="768" />
      <point x="8.84" y="764.07" />
      <point x="6.87" y="762.11" type="curve" smooth="yes" />
      <point x="2.95" y="758.18" />
      <point x="0.98" y="754.25" />
      <point x="2.95" y="742.47" type="curve" />
      <point x="18.66" y="589.26" type="line" />
      <point x="18.66" y="581.4" />
      <point x="26.52" y="563.72" />
      <point x="32.41" y="557.83" type="curve" smooth="yes" />
      <point x="38.3" y="551.94" />
      <point x="46.16" y="548.01" />
      <point x="52.05" y="544.08" type="curve" />
      <point x="435.07" y="227.85" type="line" />
      <point x="440.96" y="223.92" />
      <point x="444.89" y="216.06" />
      <point x="437.03" y="208.2" type="curve" smooth="yes" />
      <point x="380.07" y="151.24" type="line" smooth="yes" />
      <point x="364.36" y="135.53" />
      <point x="309.36" y="131.6" />
      <point x="291.68" y="113.92" type="curve" smooth="yes" />
      <point x="268.11" y="90.35" />
      <point x="266.15" y="49.1" />
      <point x="291.68" y="23.57" type="curve" smooth="yes" />
      <point x="315.25" y="0" />
      <point x="358.47" y="0" />
      <point x="382.04" y="23.57" type="curve" smooth="yes" />
      <point x="399.71" y="41.25" />
      <point x="403.64" y="96.25" />
      <point x="419.36" y="111.96" type="curve" smooth="yes" />
      <point x="482.21" y="174.81" type="line" smooth="yes" />
      <point x="490.07" y="182.67" />
      <point x="495.96" y="182.67" />
      <point x="503.82" y="174.81" type="curve" smooth="yes" />
      <point x="507.74" y="170.88" />
      <point x="521.49" y="153.21" />
      <point x="566.67" y="108.03" type="curve" smooth="yes" />
      <point x="586.31" y="88.39" />
      <point x="617.74" y="64.82" />
      <point x="619.7" y="62.85" type="curve" smooth="yes" />
      <point x="627.56" y="55" />
      <point x="623.63" y="33.39" />
      <point x="631.49" y="25.53" type="curve" smooth="yes" />
      <point x="655.06" y="1.96" />
      <point x="696.31" y="25.53" />
      <point x="719.88" y="49.1" type="curve" smooth="yes" />
      <point x="745.41" y="74.64" />
      <point x="767.02" y="113.92" />
      <point x="743.45" y="137.49" type="curve" smooth="yes" />
      <point x="735.59" y="145.35" />
      <point x="713.98" y="141.42" />
      <point x="706.13" y="149.28" type="curve" smooth="yes" />
      <point x="704.16" y="151.24" />
      <point x="680.59" y="182.67" />
      <point x="660.95" y="202.31" type="curve" smooth="yes" />
      <point x="631.49" y="231.77" />
      <point x="598.1" y="261.24" />
      <point x="594.17" y="265.17" type="curve" smooth="yes" />
      <point x="586.31" y="273.02" />
      <point x="586.31" y="278.92" />
      <point x="594.17" y="286.77" type="curve" smooth="yes" />
      <point x="643.27" y="335.88" type="line" smooth="yes" />
      <point x="660.95" y="353.55" />
      <point x="715.95" y="357.48" />
    </contour>
  </outline>
</glyph>
<glyph name="pen" format="2">
  <advance width="564"/>
  <outline>
    <contour>
      <point x="200.0" y="32.0" type="curve" smooth="yes"/>
      <point x="432.0" y="32.0" type="line" smooth="yes"/>
      <point x="452.0" y="32.0"/>
      <point x="456.0" y="36.0"/>
      <point x="456.0" y="56.0" type="curve" smooth="yes"/>
      <point x="456.0" y="122.0" type="line" smooth="yes"/>
      <point x="456.0" y="142.0"/>
      <point x="452.0" y="146.0"/>
      <point x="432.0" y="146.0" type="curve" smooth="yes"/>
      <point x="200.0" y="146.0" type="line" smooth="yes"/>
      <point x="180.0" y="146.0"/>
      <point x="176.0" y="142.0"/>
      <point x="176.0" y="122.0" type="curve" smooth="yes"/>
      <point x="176.0" y="56.0" type="line" smooth="yes"/>
      <point x="176.0" y="36.0"/>
      <point x="180.0" y="32.0"/>
    </contour>
    <contour>
      <point x="200.0" y="198.0" type="curve" smooth="yes"/>
      <point x="432.0" y="198.0" type="line" smooth="yes"/>
      <point x="454.0" y="198.0"/>
      <point x="460.0" y="196.0"/>
      <point x="480.0" y="224.0" type="curve" smooth="yes"/>
      <point x="548.0" y="316.0" type="line" smooth="yes"/>
      <point x="556.0" y="328.0"/>
      <point x="564.0" y="338.0"/>
      <point x="564.0" y="348.0" type="curve" smooth="yes"/>
      <point x="564.0" y="384.0" type="line" smooth="yes"/>
      <point x="564.0" y="390.0"/>
      <point x="560.0" y="404.0"/>
      <point x="556.0" y="416.0" type="curve" smooth="yes"/>
      <point x="440.0" y="768.0" type="line" smooth="yes"/>
      <point x="430.0" y="800.0"/>
      <point x="416.0" y="800.0"/>
      <point x="400.0" y="800.0" type="curve" smooth="yes"/>
      <point x="364.0" y="800.0" type="line" smooth="yes"/>
      <point x="348.0" y="800.0"/>
      <point x="342.0" y="792.0"/>
      <point x="342.0" y="768.0" type="curve" smooth="yes"/>
      <point x="342.0" y="464.0" type="line" smooth="yes"/>
      <point x="342.0" y="442.0"/>
      <point x="346.0" y="438.0"/>
      <point x="352.0" y="434.0" type="curve"/>
      <point x="374.0" y="422.0"/>
      <point x="392.0" y="400.0"/>
      <point x="392.0" y="366.0" type="curve" smooth="yes"/>
      <point x="392.0" y="322.0"/>
      <point x="360.0" y="290.0"/>
      <point x="316.0" y="290.0" type="curve" smooth="yes"/>
      <point x="272.0" y="290.0"/>
      <point x="240.0" y="322.0"/>
      <point x="240.0" y="366.0" type="curve" smooth="yes"/>
      <point x="240.0" y="400.0"/>
      <point x="258.0" y="422.0"/>
      <point x="280.0" y="434.0" type="curve"/>
      <point x="286.0" y="438.0"/>
      <point x="290.0" y="442.0"/>
      <point x="290.0" y="464.0" type="curve" smooth="yes"/>
      <point x="290.0" y="768.0" type="line" smooth="yes"/>
      <point x="290.0" y="792.0"/>
      <point x="284.0" y="800.0"/>
      <point x="268.0" y="800.0" type="curve" smooth="yes"/>
      <point x="232.0" y="800.0" type="line" smooth="yes"/>
      <point x="216.0" y="800.0"/>
      <point x="202.0" y="800.0"/>
      <point x="192.0" y="768.0" type="curve" smooth="yes"/>
      <point x="76.0" y="416.0" type="line" smooth="yes"/>
      <point x="72.0" y="404.0"/>
      <point x="68.0" y="390.0"/>
      <point x="68.0" y="384.0" type="curve" smooth="yes"/>
      <point x="68.0" y="348.0" type="line" smooth="yes"/>
      <point x="68.0" y="338.0"/>
      <point x="76.0" y="328.0"/>
      <point x="84.0" y="316.0" type="curve" smooth="yes"/>
      <point x="152.0" y="224.0" type="line" smooth="yes"/>
      <point x="172.0" y="198.0"/>
      <point x="180.0" y="198.0"/>
    </contour>
  </outline>
</glyph>
<glyph name="rot-ccw" format="2">
  <advance width="768" />
  <outline>
    <contour>
      <point x="576" y="564" type="line" />
      <point x="384" y="700" type="line" />
      <point x="180" y="612" type="line" />
      <point x="108" y="444" type="line" />
      <point x="164" y="248" type="line" />
      <point x="344" y="124" type="line" />
      <point x="536" y="172" type="line" />
      <point x="616" y="316" type="line" />
      <point x="548" y="332" type="line" />
      <point x="484" y="252" type="line" />
      <point x="352" y="220" type="line" />
      <point x="228" y="300" type="line" />
      <point x="184" y="432" type="line" />
      <point x="236" y="536" type="line" />
      <point x="364" y="596" type="line" />
      <point x="484" y="548" type="line" />
    </contour>
    <contour>
      <point x="180" y="612" type="line" />
      <point x="56" y="636" type="line" />
      <point x="128" y="512" type="line" />
    </contour>
  </outline>
</glyph>
<glyph name="save-as" format="2">
	<advance width="768"/>
	<outline>
		<contour>
			<point x="392" y="168" type="line"/>
			<point x="376" y="168" type="line"/>
			<point x="248" y="296" type="line"/>
			<point x="296" y="344" type="line"/>
			<point x="344" y="296" type="line"/>
			<point x="344" y="536" type="line"/>
			<point x="424" y="536" type="line"/>
			<point x="424" y="296" type="line"/>
			<point x="472" y="344" type="line"/>
			<point x="520" y="296" type="line"/>
		</contour>
		<contour>
			<point x="32" y="672" type="curve" smooth="yes"/>
			<point x="32" y="176" type="line" smooth="yes"/>
			<point x="32" y="128"/>
			<point x="48" y="112"/>
			<point x="96" y="112" type="curve" smooth="yes"/>
			<point x="672" y="112" type="line" smooth="yes"/>
			<point x="720" y="112"/>
			<point x="736" y="128"/>
			<point x="736" y="176" type="curve" smooth="yes"/>
			<point x="736" y="560" type="line" smooth="yes"/>
			<point x="736" y="608"/>
			<point x="720" y="624"/>
			<point x="672" y="624" type="curve" smooth="yes"/>
			<point x="360" y="624" type="line" smooth="yes"/>
			<point x="328" y="624"/>
			<point x="320" y="632"/>
			<point x="320" y="664" type="curve" smooth="yes"/>
			<point x="320" y="672" type="line" smooth="yes"/>
			<point x="320" y="720"/>
			<point x="304" y="736"/>
			<point x="256" y="736" type="curve" smooth="yes"/>
			<point x="96" y="736" type="line" smooth="yes"/>
			<point x="48" y="736"/>
			<point x="32" y="720"/>
		</contour>
	</outline>
</glyph>
<glyph name="save" format="2">
  <advance width="24"/>
  <outline>
    <contour>
      <point x="5.0" y="-3.0" type="line"/>
      <point x="17.0" y="-3.0" type="line"/>
      <point x="19.0" y="-5.0" type="line"/>
      <point x="19.0" y="-21.0" type="line"/>
      <point x="5.0" y="-21.0" type="line"/>
    </contour>
    <contour>
      <point x="8.0" y="-3.0" type="move"/>
      <point x="8.0" y="-9.0" type="line"/>
      <point x="16.0" y="-9.0" type="line"/>
      <point x="16.0" y="-3.0" type="line"/>
    </contour>
    <contour>
      <point x="8.0" y="-21.0" type="move"/>
      <point x="8.0" y="-14.0" type="line"/>
      <point x="16.0" y="-14.0" type="line"/>
      <point x="16.0" y="-21.0" type="line"/>
    </contour>
    <contour>
      <point x="10.0" y="-6.0" type="move"/>
      <point x="14.0" y="-6.0" type="line"/>
    </contour>
  </outline>
</glyph>
<glyph name="select" format="2">
  <advance width="540"/>
  <outline>
    <contour>
      <point x="328.0" y="32.0" type="curve" smooth="yes"/>
      <point x="314.0" y="32.0"/>
      <point x="308.0" y="38.0"/>
      <point x="300.0" y="66.0" type="curve" smooth="yes"/>
      <point x="246.0" y="258.0" type="line" smooth="yes"/>
      <point x="240.0" y="278.0"/>
      <point x="236.0" y="286.0"/>
      <point x="224.0" y="286.0" type="curve" smooth="yes"/>
      <point x="210.0" y="286.0"/>
      <point x="202.0" y="280.0"/>
      <point x="192.0" y="270.0" type="curve" smooth="yes"/>
      <point x="138.0" y="216.0" type="line" smooth="yes"/>
      <point x="122.0" y="200.0"/>
      <point x="108.0" y="192.0"/>
      <point x="90.0" y="192.0" type="curve" smooth="yes"/>
      <point x="72.0" y="192.0"/>
      <point x="66.0" y="202.0"/>
      <point x="66.0" y="226.0" type="curve" smooth="yes"/>
      <point x="64.0" y="750.0" type="line" smooth="yes"/>
      <point x="64.0" y="782.0"/>
      <point x="78.0" y="800.0"/>
      <point x="96.0" y="800.0" type="curve" smooth="yes"/>
      <point x="120.0" y="800.0"/>
      <point x="142.0" y="784.0"/>
      <point x="176.0" y="750.0" type="curve" smooth="yes"/>
      <point x="506.0" y="432.0" type="line" smooth="yes"/>
      <point x="526.0" y="414.0"/>
      <point x="540.0" y="396.0"/>
      <point x="540.0" y="378.0" type="curve" smooth="yes"/>
      <point x="540.0" y="360.0"/>
      <point x="528.0" y="350.0"/>
      <point x="502.0" y="350.0" type="curve" smooth="yes"/>
      <point x="388.0" y="350.0" type="line" smooth="yes"/>
      <point x="368.0" y="350.0"/>
      <point x="360.0" y="342.0"/>
      <point x="360.0" y="330.0" type="curve" smooth="yes"/>
      <point x="360.0" y="316.0"/>
      <point x="370.0" y="304.0"/>
      <point x="378.0" y="290.0" type="curve" smooth="yes"/>
      <point x="450.0" y="166.0" type="line" smooth="yes"/>
      <point x="460.0" y="150.0"/>
      <point x="478.0" y="126.0"/>
      <point x="478.0" y="112.0" type="curve" smooth="yes"/>
      <point x="478.0" y="94.0"/>
      <point x="462.0" y="86.0"/>
      <point x="444.0" y="78.0" type="curve" smooth="yes"/>
      <point x="366.0" y="40.0" type="line" smooth="yes"/>
      <point x="352.0" y="34.0"/>
      <point x="344.0" y="32.0"/>
    </contour>
  </outline>
</glyph>
<glyph name="shape-ellipse" format="2">
  <advance width="24"/>
  <outline>
    <contour>
      <point x="19.0" y="-12.0" type="curve" smooth="yes"/>
      <point x="19.0" y="-15.037566124069365"/>
      <point x="15.865993248815554" y="-17.5"/>
      <point x="12.0" y="-17.5" type="curve" smooth="yes"/>
      <point x="8.134006751184446" y="-17.5"/>
      <point x="5.0" y="-15.037566124069365"/>
      <point x="5.0" y="-12.0" type="curve" smooth="yes"/>
      <point x="5.0" y="-8.962433875930635"/>
      <point x="8.134006751184446" y="-6.5"/>
      <point x="12.0" y="-6.5" type="curve" smooth="yes"/>
      <point x="15.865993248815554" y="-6.5"/>
      <point x="19.0" y="-8.962433875930635"/>
    </contour>
  </outline>
</glyph>
<glyph name="shape-rectangle" format="2">
  <advance width="768" />
  <outline>
    <contour>
      <point x="128" y="128" type="line" />
      <point x="640" y="128" type="line" />
      <point x="640" y="640" type="line" />
      <point x="128" y="640" type="line" />
    </contour>
  </outline>
</glyph>
<glyph name="shapes" format="2">
  <advance width="782"/>
  <outline>
    <contour>
      <point x="460.0" y="578.0" type="line"/>
      <point x="538.0" y="578.0" type="line"/>
      <point x="538.0" y="768.0" type="line" smooth="yes"/>
      <point x="538.0" y="788.0"/>
      <point x="526.0" y="800.0"/>
      <point x="506.0" y="800.0" type="curve" smooth="yes"/>
      <point x="32.0" y="800.0" type="line" smooth="yes"/>
      <point x="12.0" y="800.0"/>
      <point x="0.0" y="788.0"/>
      <point x="0.0" y="768.0" type="curve" smooth="yes"/>
      <point x="0.0" y="294.0" type="line" smooth="yes"/>
      <point x="0.0" y="274.0"/>
      <point x="12.0" y="262.0"/>
      <point x="32.0" y="262.0" type="curve" smooth="yes"/>
      <point x="220.0" y="262.0" type="line"/>
      <point x="220.0" y="340.0" type="line"/>
      <point x="102.0" y="340.0" type="line" smooth="yes"/>
      <point x="86.0" y="340.0"/>
      <point x="78.0" y="348.0"/>
      <point x="78.0" y="364.0" type="curve" smooth="yes"/>
      <point x="78.0" y="698.0" type="line" smooth="yes"/>
      <point x="78.0" y="714.0"/>
      <point x="86.0" y="722.0"/>
      <point x="102.0" y="722.0" type="curve" smooth="yes"/>
      <point x="436.0" y="722.0" type="line" smooth="yes"/>
      <point x="452.0" y="722.0"/>
      <point x="460.0" y="714.0"/>
      <point x="460.0" y="698.0" type="curve" smooth="yes"/>
    </contour>
    <contour>
      <point x="486.0" y="16.0" type="curve" smooth="yes"/>
      <point x="648.0" y="16.0"/>
      <point x="782.0" y="148.0"/>
      <point x="782.0" y="312.0" type="curve" smooth="yes"/>
      <point x="782.0" y="476.0"/>
      <point x="648.0" y="608.0"/>
      <point x="486.0" y="608.0" type="curve" smooth="yes"/>
      <point x="322.0" y="608.0"/>
      <point x="192.0" y="476.0"/>
      <point x="192.0" y="312.0" type="curve" smooth="yes"/>
      <point x="192.0" y="148.0"/>
      <point x="322.0" y="16.0"/>
    </contour>
    <contour>
      <point x="486.0" y="96.0" type="curve" smooth="yes"/>
      <point x="368.0" y="96.0"/>
      <point x="270.0" y="192.0"/>
      <point x="270.0" y="312.0" type="curve" smooth="yes"/>
      <point x="270.0" y="432.0"/>
      <point x="368.0" y="528.0"/>
      <point x="486.0" y="528.0" type="curve" smooth="yes"/>
      <point x="606.0" y="528.0"/>
      <point x="702.0" y="432.0"/>
      <point x="702.0" y="312.0" type="curve" smooth="yes"/>
      <point x="702.0" y="192.0"/>
      <point x="606.0" y="96.0"/>
    </contour>
  </outline>
</glyph>
<glyph name="text-ltr" format="2">
  <advance width="768" />
  <outline>
    <contour>
      <point x="128" y="584" type="line" />
      <point x="496" y="584" type="line" />
      <point x="496" y="656" type="line" />
      <point x="128" y="656" type="line" />
    </contour>
    <contour>
      <point x="276" y="128" type="line" />
      <point x="348" y="128" type="line" />
      <point x="348" y="584" type="line" />
      <point x="276" y="584" type="line" />
    </contour>
    <contour>
      <point x="496" y="392" type="line" />
      <point x="648" y="512" type="line" />
      <point x="648" y="432" type="line" />
      <point x="704" y="432" type="line" />
      <point x="704" y="352" type="line" />
      <point x="648" y="352" type="line" />
      <point x="648" y="272" type="line" />
    </contour>
  </outline>
</glyph>
<glyph name="text" format="2">
  <advance width="744"/>
  <outline>
    <contour>
      <point x="56.0" y="800.0" type="curve" smooth="yes"/>
      <point x="712.0" y="800.0" type="line" smooth="yes"/>
      <point x="734.0" y="800.0"/>
      <point x="744.0" y="792.0"/>
      <point x="744.0" y="768.0" type="curve" smooth="yes"/>
      <point x="744.0" y="568.0" type="line" smooth="yes"/>
      <point x="744.0" y="552.0"/>
      <point x="728.0" y="536.0"/>
      <point x="712.0" y="536.0" type="curve" smooth="yes"/>
      <point x="696.0" y="536.0" type="line" smooth="yes"/>
      <point x="678.0" y="536.0"/>
      <point x="668.0" y="552.0"/>
      <point x="662.0" y="568.0" type="curve" smooth="yes"/>
      <point x="642.0" y="622.0"/>
      <point x="624.0" y="672.0"/>
      <point x="572.0" y="672.0" type="curve" smooth="yes"/>
      <point x="532.0" y="672.0" type="line" smooth="yes"/>
      <point x="484.0" y="672.0"/>
      <point x="468.0" y="660.0"/>
      <point x="468.0" y="608.0" type="curve" smooth="yes"/>
      <point x="468.0" y="284.0" type="line" smooth="yes"/>
      <point x="468.0" y="186.0"/>
      <point x="488.0" y="128.0"/>
      <point x="616.0" y="128.0" type="curve" smooth="yes"/>
      <point x="640.0" y="128.0"/>
      <point x="648.0" y="120.0"/>
      <point x="648.0" y="96.0" type="curve" smooth="yes"/>
      <point x="648.0" y="64.0" type="line" smooth="yes"/>
      <point x="648.0" y="40.0"/>
      <point x="640.0" y="32.0"/>
      <point x="616.0" y="32.0" type="curve" smooth="yes"/>
      <point x="152.0" y="32.0" type="line" smooth="yes"/>
      <point x="128.0" y="32.0"/>
      <point x="120.0" y="40.0"/>
      <point x="120.0" y="64.0" type="curve" smooth="yes"/>
      <point x="120.0" y="96.0" type="line" smooth="yes"/>
      <point x="120.0" y="120.0"/>
      <point x="128.0" y="128.0"/>
      <point x="152.0" y="128.0" type="curve" smooth="yes"/>
      <point x="280.0" y="128.0"/>
      <point x="300.0" y="186.0"/>
      <point x="300.0" y="284.0" type="curve" smooth="yes"/>
      <point x="300.0" y="608.0" type="line" smooth="yes"/>
      <point x="300.0" y="660.0"/>
      <point x="284.0" y="672.0"/>
      <point x="236.0" y="672.0" type="curve" smooth="yes"/>
      <point x="196.0" y="672.0" type="line" smooth="yes"/>
      <point x="144.0" y="672.0"/>
      <point x="126.0" y="622.0"/>
      <point x="106.0" y="568.0" type="curve" smooth="yes"/>
      <point x="100.0" y="552.0"/>
      <point x="90.0" y="536.0"/>
      <point x="72.0" y="536.0" type="curve" smooth="yes"/>
      <point x="56.0" y="536.0" type="line" smooth="yes"/>
      <point x="40.0" y="536.0"/>
      <point x="24.0" y="552.0"/>
      <point x="24.0" y="568.0" type="curve" smooth="yes"/>
      <point x="24.0" y="768.0" type="line" smooth="yes"/>
      <point x="24.0" y="792.0"/>
      <point x="34.0" y="800.0"/>
    </contour>
  </outline>
</glyph>
